<svg xmlns="http://www.w3.org/2000/svg" viewBox="0 0 36.78 36.78"><defs><style>.cls-1{fill:#ffa7c1;}</style></defs><g id="_01-SINGLE-GREY" data-name="01-SINGLE-GREY"><path id="Instagram" class="cls-1" d="M32.44.12,4.49,0A4.35,4.35,0,0,0,.12,4.33L0,32.3a4.35,4.35,0,0,0,4.34,4.36l28,.12a4.35,4.35,0,0,0,4.37-4.33l.12-28A4.35,4.35,0,0,0,32.44.12Zm-6,5.7a1.15,1.15,0,0,1,1.15-1.14h3.44a1.15,1.15,0,0,1,1.14,1.15V9.28A1.15,1.15,0,0,1,31,10.42H27.59a1.15,1.15,0,0,1-1.14-1.15Zm-8,5.58a7,7,0,1,1-7.08,7A7,7,0,0,1,18.46,11.4ZM33.23,32.2a1.15,1.15,0,0,1-1.15,1.14l-27.5-.11a1.15,1.15,0,0,1-1.14-1.15l.07-17.19,4.58,0a7,7,0,0,0-.81,3.48,11.16,11.16,0,0,0,22.31.09A5.92,5.92,0,0,0,28.72,15H33.3Z"/></g></svg>
